<svg xmlns="http://www.w3.org/2000/svg" width="48" height="48" fill="none" viewBox="0 0 48 48">
  <g transform="scale(1.4) rotate(-45) translate(-24, 0)">
    <path d="M20 6 L28 6 L30 40 L18 40 Z" stroke="#1a1a2e" stroke-width="1.2" stroke-linejoin="round"/>
    <line x1="20" y1="6" x2="28" y2="6" stroke="#1a1a2e" stroke-width="1"/>
    <line x1="19.8" y1="12" x2="28.2" y2="12" stroke="#1a1a2e" stroke-width="0.8"/>
    <line x1="19.6" y1="18" x2="28.4" y2="18" stroke="#1a1a2e" stroke-width="0.8"/>
    <line x1="19.4" y1="24" x2="28.6" y2="24" stroke="#1a1a2e" stroke-width="0.8"/>
    <line x1="19.2" y1="30" x2="28.8" y2="30" stroke="#1a1a2e" stroke-width="0.8"/>
    <line x1="19" y1="36" x2="29" y2="36" stroke="#1a1a2e" stroke-width="0.8"/>
    <g stroke="#1a1a2e" stroke-width="0.35" opacity="0.2">
      <line x1="20.5" y1="6" x2="18.5" y2="40"/>
      <line x1="21.9" y1="6" x2="20.7" y2="40"/>
      <line x1="23.3" y1="6" x2="22.9" y2="40"/>
      <line x1="24.7" y1="6" x2="25.1" y2="40"/>
      <line x1="26.1" y1="6" x2="27.3" y2="40"/>
      <line x1="27.5" y1="6" x2="29.5" y2="40"/>
    </g>
    <circle cx="26" cy="9" r="1" fill="#863bff"/>
    <circle cx="25" cy="15" r="1" fill="#863bff"/>
    <circle cx="23" cy="15" r="1" fill="#863bff"/>
  </g>
</svg>
